<svg id="Layer_4" data-name="Layer 4" xmlns="http://www.w3.org/2000/svg" viewBox="0 0 859.88 892.16"><defs><style>.cls-1{fill:#bfe2ef;}.cls-2{fill:#231f20;}.cls-3{fill:none;}.cls-4{fill:#231b53;}.cls-5{fill:#bd1550;}</style></defs><polygon class="cls-1" points="398.8 166.57 398.86 166.59 398.83 166.54 398.8 166.57"/><polygon class="cls-2" points="529.94 258.78 529.93 258.78 529.93 258.78 529.94 258.78"/><polygon class="cls-3" points="398.8 166.57 398.86 166.59 398.83 166.54 398.8 166.57"/><polygon class="cls-3" points="529.94 258.78 529.93 258.78 529.93 258.78 529.94 258.78"/><path class="cls-4" d="M500,55.38C271.68,55.38,84.85,246,70.11,487.05a28.9,28.9,0,0,0,28.8,30.72H901.09a28.9,28.9,0,0,0,28.8-30.72C915.15,246,728.32,55.38,500,55.38ZM383.82,398.3a28.82,28.82,0,0,1-28.29-34.55c14.7-71.1,73.8-124.28,144.47-124.28s129.77,53.18,144.47,124.28a28.82,28.82,0,0,1-28.29,34.55Z" transform="translate(-70.06 -55.38)"/><path class="cls-5" d="M758.75,626.2a44.31,44.31,0,0,0-37.33,20.24C675.85,717.4,593.74,764.76,500,764.76S324.15,717.4,278.58,646.44a44.31,44.31,0,0,0-37.33-20.24H139.77c-31.68,0-53.38,32.2-41.22,61.46C161.8,839.86,317.65,947.54,500,947.54S838.2,839.86,901.45,687.66c12.16-29.26-9.54-61.46-41.22-61.46Z" transform="translate(-70.06 -55.38)"/></svg>